<?xml version="1.0" standalone="no"?>
<!DOCTYPE svg PUBLIC "-//W3C//DTD SVG 20010904//EN"
 "http://www.w3.org/TR/2001/REC-SVG-20010904/DTD/svg10.dtd">
<svg version="1.0" xmlns="http://www.w3.org/2000/svg"
 width="512.000000pt" height="512.000000pt" viewBox="0 0 512.000000 512.000000"
 preserveAspectRatio="xMidYMid meet">
<metadata>
Created by potrace 1.14, written by Peter Selinger 2001-2017
</metadata>
<g transform="translate(0.000000,512.000000) scale(0.100000,-0.100000)"
fill="#000000" stroke="none">
<path d="M2408 4565 c-5 -5 -108 -17 -160 -19 -16 -1 -28 -3 -28 -6 0 -3 -10
-6 -22 -7 -62 -5 -105 -11 -125 -17 -24 -8 -54 -15 -96 -22 -15 -3 -53 -14
-84 -24 -31 -10 -64 -17 -75 -15 -10 2 -16 0 -13 -6 4 -5 -3 -10 -14 -10 -21
-2 -39 -5 -43 -9 -4 -2 -26 -8 -63 -15 -16 -3 -41 -10 -55 -14 -14 -5 -52 -17
-85 -27 -83 -24 -303 -107 -356 -134 -24 -13 -46 -22 -48 -21 -2 2 -7 -1 -10
-6 -3 -5 -39 -28 -78 -51 -40 -24 -73 -47 -73 -52 0 -6 -3 -9 -7 -8 -7 2 -83
-44 -110 -67 -6 -5 -23 -19 -37 -30 -97 -74 -242 -218 -331 -328 -54 -66 -135
-184 -135 -197 0 -5 -3 -10 -7 -10 -5 0 -28 -39 -53 -88 -25 -48 -48 -89 -53
-90 -4 -2 -5 -8 -1 -13 3 -5 0 -9 -7 -9 -7 0 -10 -3 -7 -6 5 -5 -9 -45 -42
-119 -16 -34 -51 -148 -53 -167 -1 -10 -6 -18 -11 -18 -5 0 -7 -3 -4 -6 3 -3
0 -31 -8 -63 -23 -103 -25 -114 -28 -221 -2 -72 3 -137 15 -205 11 -55 20
-106 21 -112 1 -7 5 -13 9 -13 5 0 6 -7 3 -15 -4 -8 -1 -22 6 -30 7 -8 10 -15
7 -15 -3 0 1 -17 10 -37 8 -21 20 -49 26 -63 6 -14 10 -28 9 -32 -1 -5 3 -8 8
-8 6 0 10 -9 10 -20 0 -11 3 -20 8 -20 4 0 13 -13 20 -28 6 -16 21 -38 32 -50
11 -12 20 -24 20 -26 0 -9 31 -45 85 -98 79 -78 90 -88 98 -88 4 0 17 -9 29
-20 12 -11 34 -26 50 -32 15 -7 28 -16 28 -20 0 -5 4 -8 9 -8 5 0 42 -15 83
-34 40 -19 98 -42 128 -52 30 -9 62 -19 70 -22 8 -3 19 -4 24 -3 4 1 14 -4 22
-10 8 -6 14 -9 14 -5 0 3 15 0 34 -8 19 -8 37 -12 40 -9 2 3 11 1 18 -3 7 -5
19 -9 26 -10 18 -3 14 3 52 -79 18 -38 36 -72 40 -75 3 -3 20 -25 37 -50 47
-68 154 -173 206 -199 15 -8 27 -18 27 -22 0 -4 11 -10 25 -13 14 -4 25 -11
25 -17 0 -6 4 -8 9 -4 5 3 12 1 16 -5 4 -6 11 -8 16 -5 5 4 9 1 9 -4 0 -6 3
-10 8 -10 4 1 10 0 15 -1 4 -1 12 -4 17 -5 6 -1 11 -3 13 -5 6 -5 45 -12 74
-13 18 -1 33 -5 33 -8 0 -8 207 -3 240 5 14 4 39 9 55 11 17 3 55 11 85 20 42
11 56 12 62 2 78 -127 215 -195 372 -184 45 3 93 9 108 12 21 6 27 3 33 -14
10 -32 124 -145 180 -178 44 -26 166 -83 178 -83 7 0 17 -4 23 -8 9 -8 78 -27
138 -38 16 -3 32 -7 36 -9 30 -18 376 -26 389 -8 3 5 16 8 29 7 12 -1 22 3 22
8 0 5 4 7 9 3 5 -3 20 -1 33 4 32 13 52 19 59 17 3 0 13 5 22 13 10 7 17 10
17 7 0 -4 6 -2 13 4 6 6 44 29 82 52 39 23 75 49 82 57 7 9 13 13 13 8 0 -4
28 21 63 57 72 74 99 106 90 106 -4 0 0 6 9 12 20 15 94 157 109 209 10 33 17
38 78 59 60 22 156 65 206 93 86 50 216 177 270 266 22 36 39 69 38 73 -2 4 1
8 6 8 5 0 17 21 27 47 10 27 23 51 28 55 6 4 8 8 4 8 -4 0 0 19 9 43 8 23 15
52 14 65 0 12 3 22 7 22 5 0 9 6 9 13 2 39 14 131 19 138 3 5 0 9 -6 9 -6 0
-8 5 -4 11 3 6 8 29 10 52 1 22 9 44 16 48 7 5 9 9 5 9 -4 0 -2 10 5 22 7 13
13 28 14 33 0 6 6 23 13 39 6 16 10 35 7 43 -3 7 -2 13 2 13 24 0 18 271 -7
318 -6 11 -8 22 -4 25 6 7 -5 41 -38 114 -11 24 -19 50 -19 58 0 8 -4 15 -9
15 -5 0 -14 15 -21 33 -8 17 -20 40 -28 49 -8 9 -15 31 -16 48 0 16 -5 30 -10
30 -6 0 -5 5 2 12 7 7 8 17 2 28 -5 10 -12 32 -15 51 -5 29 -14 65 -30 117 -3
7 -5 14 -5 17 0 3 -17 40 -39 83 -45 90 -111 181 -173 236 -23 22 -55 65 -70
95 -29 58 -49 92 -58 101 -3 3 -17 21 -30 40 -34 50 -156 169 -215 210 -27 19
-52 37 -55 40 -8 9 -164 84 -172 82 -4 -1 -35 26 -70 59 -62 60 -186 149 -207
149 -6 0 -11 4 -11 8 0 5 -18 15 -40 22 -22 7 -40 16 -40 19 0 4 -8 7 -17 8
-10 1 -36 10 -58 19 -22 10 -42 18 -45 19 -69 15 -99 22 -102 25 -2 1 -14 3
-28 5 -14 1 -38 6 -55 10 -16 4 -50 8 -75 10 -25 2 -45 4 -45 5 0 1 -22 4 -50
5 -64 5 -93 10 -127 24 -16 6 -28 8 -28 5 0 -4 -6 -2 -12 3 -7 6 -20 10 -28
11 -8 0 -31 3 -50 7 -35 6 -88 13 -167 19 -23 2 -47 7 -54 12 -8 5 -9 3 -4 -6
6 -9 4 -11 -5 -5 -20 13 -141 14 -133 2 4 -6 1 -7 -8 -1 -19 11 -89 12 -89 1
0 -5 -6 -4 -13 2 -8 6 -16 9 -19 6z"/>
</g>
</svg>
